<?xml version="1.0" standalone="no"?>
<!DOCTYPE svg PUBLIC "-//W3C//DTD SVG 20010904//EN"
 "http://www.w3.org/TR/2001/REC-SVG-20010904/DTD/svg10.dtd">
<svg version="1.0" xmlns="http://www.w3.org/2000/svg"
 width="1759.000000pt" height="560.000000pt" viewBox="0 0 1759.000000 560.000000"
 preserveAspectRatio="xMidYMid meet">

<g transform="translate(0.000000,560.000000) scale(0.100000,-0.100000)"
fill="#000000" stroke="none">
<path d="M2324 4356 c-112 -35 -265 -163 -365 -306 -216 -307 -410 -788 -548
-1360 -69 -283 -84 -393 -78 -560 6 -170 19 -226 87 -365 81 -169 187 -288
340 -387 252 -162 549 -189 1000 -92 621 134 1110 430 1216 736 28 78 25 234
-4 306 -35 85 -89 161 -168 239 l-73 73 49 122 c78 196 95 271 95 423 0 120
-2 135 -26 186 -50 107 -131 172 -254 204 -83 21 -273 19 -410 -5 -60 -10
-111 -17 -113 -15 -2 2 -26 69 -53 150 -122 367 -275 580 -465 646 -62 22
-168 24 -230 5z m215 -229 c60 -40 125 -128 186 -252 49 -99 135 -334 135
-368 0 -7 -36 -25 -87 -41 -230 -74 -581 -230 -760 -337 -72 -43 -227 -146
-313 -207 -17 -13 -17 -6 7 70 146 479 339 871 516 1051 116 117 223 146 316
84z m1012 -758 c48 -12 88 -45 105 -85 33 -79 5 -259 -67 -439 -17 -44 -33
-81 -34 -83 -2 -2 -49 20 -106 49 -57 29 -140 67 -184 85 l-79 33 -18 123
c-10 68 -25 156 -33 197 -8 40 -15 79 -15 86 0 11 130 38 240 49 46 5 145 -3
191 -15z m-612 -209 c12 -63 21 -124 21 -135 l0 -21 -92 23 c-104 27 -363 73
-411 73 l-32 1 26 14 c81 44 449 177 461 166 3 -3 16 -58 27 -121z m-469 -270
c123 -15 278 -46 407 -82 91 -25 113 -35 117 -52 13 -56 28 -407 23 -541 -6
-153 -19 -224 -60 -324 -87 -215 -311 -393 -555 -441 -103 -21 -261 -9 -365
27 -123 43 -189 85 -287 183 -143 142 -214 310 -213 505 0 122 21 213 73 320
95 196 271 337 490 394 86 23 236 27 370 11z m807 -226 c32 -14 86 -41 121
-60 l63 -35 -39 -72 c-21 -40 -72 -126 -113 -191 l-74 -120 -7 155 c-3 85 -9
198 -12 252 -3 53 -4 97 -1 97 2 0 30 -11 62 -26z m484 -380 c35 -71 33 -160
-4 -235 -54 -112 -213 -243 -417 -344 -84 -42 -310 -135 -328 -135 -3 0 17 24
45 53 126 129 358 448 488 672 32 55 65 111 73 124 l15 25 52 -56 c29 -31 63
-78 76 -104z"/>
<path d="M5342 3738 c-9 -9 -12 -230 -12 -935 0 -902 0 -923 19 -933 13 -6
203 -10 550 -10 468 0 531 2 545 16 12 12 16 38 16 114 0 76 -4 102 -16 114
-13 14 -66 16 -430 16 l-414 0 0 803 c0 611 -3 806 -12 815 -17 17 -229 17
-246 0z"/>
<path d="M6732 3742 c-36 -11 -93 -62 -108 -98 -49 -118 33 -243 160 -244 129
0 215 135 157 248 -41 80 -125 118 -209 94z"/>
<path d="M8852 3738 c-9 -9 -12 -230 -12 -935 0 -902 0 -923 19 -933 11 -5 62
-10 115 -10 87 0 96 2 110 22 14 19 16 72 16 378 0 385 3 413 56 510 54 99
149 150 277 150 146 -1 235 -74 266 -218 7 -34 11 -190 11 -432 0 -331 2 -381
16 -394 12 -12 38 -16 113 -16 82 0 101 3 114 18 15 17 17 61 17 433 -1 463
-7 528 -60 627 -80 151 -214 225 -405 225 -154 -1 -260 -39 -352 -127 l-52
-51 -3 373 c-3 318 -5 374 -18 382 -22 14 -213 13 -228 -2z"/>
<path d="M12282 3742 c-36 -11 -93 -62 -108 -98 -49 -118 33 -243 160 -244
105 0 184 86 174 190 -11 108 -121 182 -226 152z"/>
<path d="M14050 3740 c-13 -8 -15 -123 -18 -921 -2 -807 -1 -915 13 -936 14
-22 22 -23 113 -23 63 0 104 4 115 12 15 12 17 45 19 315 l3 303 262 -293
c144 -160 271 -302 283 -315 21 -22 26 -22 187 -20 119 2 167 6 170 15 4 10
-299 344 -571 631 l-41 44 284 277 c174 170 281 282 277 290 -5 7 -58 11 -169
11 l-162 0 -262 -262 -263 -263 0 561 c0 422 -3 563 -12 572 -15 15 -206 16
-228 2z"/>
<path d="M10412 3468 c-8 -8 -12 -62 -12 -175 l0 -163 -124 0 c-94 0 -126 -3
-135 -14 -8 -9 -11 -47 -9 -107 l3 -94 133 -3 132 -3 0 -377 c0 -215 5 -405
11 -442 27 -168 127 -247 328 -258 112 -6 225 12 252 39 17 17 19 32 17 117
l-3 97 -35 -3 c-19 -1 -73 -4 -120 -5 -74 -2 -89 1 -116 20 -67 48 -69 59 -72
456 l-3 357 159 0 c109 0 162 4 170 12 15 15 16 161 2 189 -10 18 -23 19 -170
19 l-160 0 0 156 c0 88 -4 164 -10 175 -10 17 -22 19 -118 19 -71 0 -112 -4
-120 -12z"/>
<path d="M7738 3160 c-210 -26 -388 -149 -476 -330 -59 -121 -76 -193 -76
-330 1 -129 17 -208 65 -305 80 -164 235 -288 411 -330 83 -19 247 -19 323 0
83 22 165 69 224 128 l51 51 0 -99 c-1 -272 -92 -410 -302 -460 -173 -41 -358
-1 -506 109 -34 25 -73 46 -86 46 -32 0 -146 -136 -146 -173 0 -72 239 -198
431 -228 121 -19 328 -7 424 24 200 65 347 209 413 401 l27 81 3 678 c2 507 0
682 -9 693 -15 18 -219 20 -237 2 -7 -7 -12 -40 -12 -76 l0 -64 -52 47 c-119
107 -292 157 -470 135z m255 -260 c155 -48 253 -183 264 -365 17 -256 -126
-429 -365 -443 -254 -14 -417 128 -430 373 -3 57 0 113 8 146 34 145 131 253
263 294 65 21 184 18 260 -5z"/>
<path d="M15705 3161 c-90 -11 -168 -39 -238 -85 -157 -105 -211 -306 -126
-467 56 -105 130 -147 363 -208 218 -56 280 -95 280 -175 0 -76 -59 -126 -176
-147 -107 -20 -237 17 -320 90 -20 17 -46 31 -58 31 -21 0 -136 -88 -153 -117
-16 -27 3 -62 59 -108 126 -102 212 -135 374 -142 248 -11 424 68 511 229 33
61 34 67 34 173 0 100 -3 115 -27 160 -58 110 -149 164 -374 220 -219 55 -274
91 -274 178 0 134 241 172 395 62 28 -19 58 -35 69 -35 25 0 153 96 161 120 8
26 -5 49 -59 98 -104 96 -272 143 -441 123z"/>
<path d="M11709 3137 c-73 -31 -143 -82 -180 -131 l-29 -40 0 70 c0 41 -5 75
-12 82 -8 8 -49 12 -120 12 -96 0 -108 -2 -118 -19 -6 -13 -10 -225 -10 -619
0 -567 1 -600 18 -615 26 -24 203 -24 226 -1 14 13 16 60 16 355 0 272 3 354
16 408 38 170 144 246 359 260 l100 6 3 115 c3 141 4 140 -122 140 -72 0 -103
-5 -147 -23z"/>
<path d="M13211 3149 c-236 -39 -439 -233 -497 -474 -23 -93 -23 -276 -1 -367
58 -236 233 -407 474 -462 101 -23 260 -21 357 4 135 34 286 131 286 182 0 27
-129 158 -156 158 -11 0 -43 -18 -72 -39 -75 -56 -139 -76 -247 -76 -77 0 -99
5 -148 28 -79 36 -128 77 -167 137 -113 177 -86 452 59 583 134 121 344 126
502 13 27 -20 58 -36 70 -36 11 0 48 26 82 58 75 69 77 71 77 99 0 51 -184
161 -315 188 -77 16 -219 18 -304 4z"/>
<path d="M6667 3123 c-4 -3 -7 -284 -7 -623 0 -466 3 -619 12 -628 15 -15 191
-16 219 -2 18 10 19 28 19 623 0 464 -3 616 -12 625 -13 13 -219 18 -231 5z"/>
<path d="M12217 3123 c-4 -3 -7 -284 -7 -623 0 -466 3 -619 12 -628 15 -15
191 -16 219 -2 18 10 19 28 19 623 0 464 -3 616 -12 625 -13 13 -219 18 -231
5z"/>
</g>
</svg>
