<?xml version="1.0" encoding="UTF-8"?> <svg xmlns="http://www.w3.org/2000/svg" xmlns:xlink="http://www.w3.org/1999/xlink" width="170" height="60" viewBox="0 0 170 60"><defs><clipPath id="clip-path"><rect id="Rectangle_2" data-name="Rectangle 2" width="170" height="60"></rect></clipPath></defs><g id="Web_1920_1" data-name="Web 1920 – 1" clip-path="url(#clip-path)"><rect id="Rectangle_1" data-name="Rectangle 1" width="170" height="60" fill="#fff"></rect><g id="Group_1" data-name="Group 1"><g id="sepio-cyber-logo" transform="translate(1.889 12.278)"><path id="Path_838" data-name="Path 838" d="M84.135,112.823a5.856,5.856,0,0,1-4.61,2.078H58.967v-4.564H79.521c1.305,0,1.757-1.109,1.757-2.394s-.451-2.394-1.757-2.394H64.162a5.856,5.856,0,0,1-4.616-2.087,7.011,7.011,0,0,1-1.761-4.848,7.249,7.249,0,0,1,1.81-4.95,5.77,5.77,0,0,1,4.568-2.037H84.716v4.565h-20.6c-1.311,0-1.759,1.122-1.759,2.418,0,1.279.458,2.371,1.759,2.371H79.507a5.882,5.882,0,0,1,4.628,2.078,7.793,7.793,0,0,1,0,9.766" transform="translate(-57.781 -84.637)" fill="#0c385a"></path><path id="Path_839" data-name="Path 839" d="M270.729,97.152a1.555,1.555,0,0,0-1.439-.965H250.741V102.4H269.29a1.554,1.554,0,0,0,1.436-.944,4.966,4.966,0,0,0,.371-2.136,5.13,5.13,0,0,0-.365-2.172m3.248,7.428a5.556,5.556,0,0,1-4.686,2.388H250.742v7.933h-4.574V91.626h23.123a5.548,5.548,0,0,1,4.684,2.386,8.5,8.5,0,0,1,1.694,5.31,8.305,8.305,0,0,1-1.692,5.26" transform="translate(-169.838 -84.637)" fill="#0c385a"></path><rect id="Rectangle_1091" data-name="Rectangle 1091" width="4.574" height="23.27" transform="translate(116.468 6.988)" fill="#0c385a"></rect><rect id="Rectangle_1092" data-name="Rectangle 1092" width="27.302" height="4.465" transform="translate(37.941 7.009)" fill="#0c385a"></rect><rect id="Rectangle_1093" data-name="Rectangle 1093" width="27.302" height="4.465" transform="translate(37.941 25.736)" fill="#0c385a"></rect><rect id="Rectangle_1094" data-name="Rectangle 1094" width="25.218" height="4.465" transform="translate(37.918 16.344)" fill="#0c385a"></rect><path id="Path_4" data-name="Path 4" d="M383.55,108.984a1.578,1.578,0,0,1-1.228-.585,17.687,17.687,0,0,1-3.353-14.49,18.511,18.511,0,0,1,7.964-11.515,1.579,1.579,0,1,1,1.633,2.7,15.54,15.54,0,0,0-6.495,9.422,14.712,14.712,0,0,0,2.708,11.888,1.578,1.578,0,0,1-1.228,2.57" transform="translate(-248.613 -79.014)" fill="#0c385a"></path><path id="Path_5" data-name="Path 5" d="M409.006,143.9a17.838,17.838,0,0,1-8.683-2.259,1.578,1.578,0,1,1,1.653-2.688,14.373,14.373,0,0,0,12.538.636c6.706-2.928,8.246-8.266,8.311-8.492a1.58,1.58,0,1,1,3.053.816c-.075.283-1.941,7.008-10.093,10.567a16.791,16.791,0,0,1-6.772,1.422" transform="translate(-261.082 -107.424)" fill="#0c385a"></path><path id="Path_6" data-name="Path 6" d="M436.229,93.115a1.579,1.579,0,0,1-1.569-1.41,15.86,15.86,0,0,0-3.48-7.5,14.606,14.606,0,0,0-11.323-5.075,1.577,1.577,0,1,1-.2-3.148,17.821,17.821,0,0,1,13.949,6.206,18.754,18.754,0,0,1,4.2,9.176,1.578,1.578,0,0,1-1.4,1.737,1.51,1.51,0,0,1-.171.009" transform="translate(-272.154 -75.327)" fill="#0c385a"></path><g id="Group_1-2" data-name="Group 1" transform="translate(147.075 0) rotate(43)"><path id="Path_7" data-name="Path 7" d="M7.25,16.146a.649.649,0,0,1-.283-.066A13,13,0,0,1,.846,9.154C-.948,3.752.658.492.727.356A.648.648,0,0,1,1.883.94C1.868.969.467,3.9,2.072,8.745a11.881,11.881,0,0,0,5.46,6.173.647.647,0,0,1-.283,1.228" transform="translate(0 8.315)" fill="#0c385a"></path><path id="Path_8" data-name="Path 8" d="M.656,12.761a.647.647,0,1,1-.019-1.294A11.674,11.674,0,0,0,11.147.652.648.648,0,0,1,11.79,0H11.8a.646.646,0,0,1,.648.639A12.957,12.957,0,0,1,.676,12.762H.657" transform="translate(13.764 12.673)" fill="#0c385a"></path><path id="Path_9" data-name="Path 9" d="M15.269,5.29a.646.646,0,0,1-.51-.247A11.5,11.5,0,0,0,9.187,1.656a12.408,12.408,0,0,0-8.253.85A.648.648,0,0,1,.324,1.364,13.519,13.519,0,0,1,9.531.406a12.571,12.571,0,0,1,6.248,3.836.647.647,0,0,1-.509,1.046" transform="translate(7)" fill="#0c385a"></path></g></g><rect id="Rectangle_1-2" data-name="Rectangle 1" width="170" height="60" fill="none"></rect></g></g></svg> 